<mxfile host="65bd71144e" modified="2021-02-05T09:04:07.488Z" agent="5.0 (Windows NT 10.0; Win64; x64) AppleWebKit/537.36 (KHTML, like Gecko) Code/1.52.1 Chrome/83.0.4103.122 Electron/9.3.5 Safari/537.36" version="13.10.0" etag="S1ECGPd5215KrCgSYcAq" type="embed">
    <diagram id="FXjAzHpUJzneA9lJ5vIm" name="Page-1">
        <mxGraphModel dx="820" dy="574" grid="1" gridSize="10" guides="1" tooltips="1" connect="1" arrows="1" fold="1" page="1" pageScale="1" pageWidth="850" pageHeight="1100" math="0" shadow="0">
            <root>
                <mxCell id="0"/>
                <mxCell id="1" parent="0"/>
                <mxCell id="12" value="&lt;font style=&quot;font-size: 21px&quot; color=&quot;#000000&quot;&gt;&amp;nbsp; &amp;nbsp; &amp;nbsp;NavDestination&lt;/font&gt;" style="rounded=0;whiteSpace=wrap;html=1;fillColor=#EFEFEF;verticalAlign=top;align=left;" vertex="1" parent="1">
                    <mxGeometry x="230" y="10" width="710" height="501.5" as="geometry"/>
                </mxCell>
                <mxCell id="22" value="SparseArray" style="rounded=1;whiteSpace=wrap;html=1;fontSize=15;fillColor=none;strokeColor=#000000;dashed=1;strokeWidth=2;verticalAlign=top;fontColor=#000000;" vertex="1" parent="1">
                    <mxGeometry x="717.5" y="100" width="160" height="220" as="geometry"/>
                </mxCell>
                <mxCell id="14" value="NavDeepLink" style="rounded=1;whiteSpace=wrap;html=1;fillColor=#1ba1e2;fontColor=#ffffff;strokeColor=none;fontSize=15;" vertex="1" parent="1">
                    <mxGeometry x="307.5" y="210" width="120" height="60" as="geometry"/>
                </mxCell>
                <mxCell id="15" value="NavAction" style="rounded=1;whiteSpace=wrap;html=1;fillColor=#1ba1e2;fontColor=#ffffff;strokeColor=none;fontSize=15;" vertex="1" parent="1">
                    <mxGeometry x="737.5" y="140" width="120" height="60" as="geometry"/>
                </mxCell>
                <mxCell id="20" value="NavAction" style="rounded=1;whiteSpace=wrap;html=1;fillColor=#1ba1e2;fontColor=#ffffff;strokeColor=none;fontSize=15;" vertex="1" parent="1">
                    <mxGeometry x="737.5" y="210" width="120" height="60" as="geometry"/>
                </mxCell>
                <mxCell id="23" value="HasMap" style="rounded=1;whiteSpace=wrap;html=1;dashed=1;strokeColor=#000000;strokeWidth=2;fillColor=none;fontSize=15;fontColor=#000000;verticalAlign=top;" vertex="1" parent="1">
                    <mxGeometry x="507.5" y="100" width="150" height="220" as="geometry"/>
                </mxCell>
                <mxCell id="26" value="NavArgument" style="rounded=1;whiteSpace=wrap;html=1;dashed=1;strokeWidth=2;fontSize=15;fontColor=#ffffff;fillColor=#1ba1e2;strokeColor=none;" vertex="1" parent="1">
                    <mxGeometry x="522.5" y="140" width="120" height="60" as="geometry"/>
                </mxCell>
                <mxCell id="27" value="NavArgument" style="rounded=1;whiteSpace=wrap;html=1;dashed=1;strokeWidth=2;fontSize=15;fontColor=#ffffff;fillColor=#1ba1e2;strokeColor=none;" vertex="1" parent="1">
                    <mxGeometry x="522.5" y="210" width="120" height="60" as="geometry"/>
                </mxCell>
                <mxCell id="29" value="NavDeepLink" style="rounded=1;whiteSpace=wrap;html=1;fillColor=#1ba1e2;fontColor=#ffffff;strokeColor=none;fontSize=15;" vertex="1" parent="1">
                    <mxGeometry x="307.5" y="140" width="120" height="60" as="geometry"/>
                </mxCell>
                <mxCell id="30" value="ArrayList" style="rounded=1;whiteSpace=wrap;html=1;dashed=1;strokeColor=#000000;strokeWidth=2;fillColor=none;fontSize=15;fontColor=#000000;verticalAlign=top;" vertex="1" parent="1">
                    <mxGeometry x="292.5" y="100" width="150" height="220" as="geometry"/>
                </mxCell>
                <mxCell id="31" value="NavGraph (Parent)" style="rounded=1;whiteSpace=wrap;html=1;dashed=1;strokeWidth=2;fillColor=#6d8764;fontSize=15;fontColor=#ffffff;align=center;strokeColor=none;" vertex="1" parent="1">
                    <mxGeometry x="308" y="390" width="120" height="60" as="geometry"/>
                </mxCell>
                <mxCell id="43" value="&lt;span style=&quot;&quot;&gt;DeepLinkMatch&lt;/span&gt;" style="rhombus;whiteSpace=wrap;html=1;dashed=1;strokeWidth=2;fillColor=#f0a30a;fontSize=18;fontColor=#ffffff;align=center;strokeColor=none;" vertex="1" parent="1">
                    <mxGeometry x="522.5" y="370" width="260" height="100" as="geometry"/>
                </mxCell>
                <mxCell id="47" value="&lt;span style=&quot;color: rgb(0 , 0 , 0) ; font-size: 17px&quot;&gt;CompareTo&lt;/span&gt;" style="shape=doubleArrow;whiteSpace=wrap;html=1;dashed=1;strokeWidth=2;fillColor=#6d8764;fontSize=18;fontColor=#ffffff;align=center;strokeColor=none;" vertex="1" parent="1">
                    <mxGeometry x="733" y="375" width="117.5" height="90" as="geometry"/>
                </mxCell>
                <mxCell id="49" value="NavigatorName" style="rounded=0;whiteSpace=wrap;html=1;fontFamily=Helvetica;fontSize=18;align=center;fillColor=#00FF00;strokeColor=none;fontColor=#000000;" vertex="1" parent="1">
                    <mxGeometry x="420" y="10" width="140" height="40" as="geometry"/>
                </mxCell>
                <mxCell id="50" value="Id" style="rounded=0;whiteSpace=wrap;html=1;fontFamily=Helvetica;fontSize=18;align=center;fillColor=#00FF00;strokeColor=none;fontColor=#000000;" vertex="1" parent="1">
                    <mxGeometry x="570" y="10" width="40" height="40" as="geometry"/>
                </mxCell>
                <mxCell id="51" value="IdName" style="rounded=0;whiteSpace=wrap;html=1;fontFamily=Helvetica;fontSize=18;align=center;fillColor=#00FF00;strokeColor=none;fontColor=#000000;" vertex="1" parent="1">
                    <mxGeometry x="620" y="10" width="80" height="40" as="geometry"/>
                </mxCell>
                <mxCell id="52" value="Label" style="rounded=0;whiteSpace=wrap;html=1;fontFamily=Helvetica;fontSize=18;align=center;fillColor=#00FF00;strokeColor=none;fontColor=#000000;" vertex="1" parent="1">
                    <mxGeometry x="710" y="10" width="62.5" height="40" as="geometry"/>
                </mxCell>
            </root>
        </mxGraphModel>
    </diagram>
</mxfile>